<?xml version="1.0" encoding="utf-8"?>
<!-- Generator: Adobe Illustrator 28.0.0, SVG Export Plug-In . SVG Version: 6.00 Build 0)  -->
<svg version="1.1" id="Camada_1" xmlns="http://www.w3.org/2000/svg" xmlns:xlink="http://www.w3.org/1999/xlink" x="0px" y="0px"
	 viewBox="0 0 194.7 134.9" style="enable-background:new 0 0 194.7 134.9;" xml:space="preserve">
<style type="text/css">
	.st0{fill:#67059C;stroke:#67059C;stroke-width:0.7486;stroke-miterlimit:10;}
	.st1{fill:#008B09;stroke:#008B09;stroke-width:0.5009;stroke-miterlimit:10;}
	.st2{fill:#008B09;stroke:#008B09;stroke-width:0.5305;stroke-miterlimit:10;}
	.st3{fill:#008B09;stroke:#008B09;stroke-width:0.2272;stroke-miterlimit:10;}
	.st4{fill:#008B09;stroke:#008B09;stroke-width:0.2258;stroke-miterlimit:10;}
	.st5{fill:#008C08;stroke:#008B09;stroke-width:0.5305;stroke-miterlimit:10;}
	.st6{fill:#008B09;stroke:#008B09;stroke-width:0.2122;stroke-miterlimit:10;}
	.st7{fill:#008B09;stroke:#008B09;stroke-width:0.2018;stroke-miterlimit:9.9998;}
</style>
<g>
	<path class="st0" d="M169.2,58.6V58h1.3v5.2h-13.4c0-0.5,0-1,0-1.5c0.2,0,0.5,0,0.8,0c0.1-10.2,0.1-20.3,0.2-30.5
		c-0.3,0-0.6,0-0.9,0c0-0.5,0-1.1,0-1.6c4.5,0,8.9,0,13.4,0c0,1.5,0,3.1,0,4.7c-0.5,0-1,0-1.5,0c0-0.3,0-0.6,0-0.9l-7.5,0
		c0,3.7,0,7.4,0,11.1c1,0,2,0,2.9,0c0-0.2,0-0.5,0-0.8c0.5,0,1,0,1.5,0c0,1.6,0.1,3.2,0.1,4.9c-0.5,0-1.1,0-1.6,0c0-0.3,0-0.6,0-0.8
		c-0.9,0-1.9,0-2.8,0c0,3.6-0.1,7.3-0.1,10.9L169.2,58.6L169.2,58.6z"/>
	<path class="st0" d="M155,31.4c-0.6-0.6-1.1-1.2-1.7-1.8h-11.2l0,1.6h1c-0.1,10.1-0.1,20.3-0.2,30.4c-0.3,0-0.6,0-0.8,0v1.5
		c3.7,0,7.4,0,11.2,0c0.6-0.8,1.2-1.5,1.8-2.2C155,51.1,155,41.3,155,31.4z M151.1,58.7h-3.9l-0.6-0.9V34.2l0.6-0.8
		c1.3,0,2.6,0,3.9,0c0.2,0.2,0.4,0.5,0.6,0.7l0.1,23.9L151.1,58.7z"/>
	<path class="st0" d="M172.6,29.6V31c0.2,0,0.5,0,0.7,0c1.5,9.9,3.1,19.9,4.6,29.8c0,0.2,0,0.5,0,0.7c-0.2,0-0.4,0-0.6,0
		c0,0.6,0,1.1,0,1.7c2.2,0,4.4,0,6.5,0v-1.5l-0.8,0c0-0.3,0-0.5,0-0.8c1.5-9.9,3.1-19.9,4.6-29.8c0.3,0,0.5,0,0.8,0v-1.4h-5.2
		c-0.8,7.1-1.7,14.3-2.5,21.4c-0.2,0-0.4,0-0.5,0c-0.9-7.1-1.8-14.3-2.6-21.4C175.9,29.6,174.2,29.6,172.6,29.6z"/>
	<path class="st0" d="M189.6,57.3l3.6-0.1l1.1,1.4v3.1l-1.4,1.5h-3l-1.5-1.5v-3C188.7,58.2,189.2,57.8,189.6,57.3z"/>
	<polygon class="st0" points="142.1,105.4 142.1,103.9 143,103.9 143,73.3 142.1,73.3 142.1,71.8 147.4,71.8 147.4,73.4 146.6,73.4 
		146.6,85.4 147.4,85.4 152.4,73.2 151.9,73.2 151.9,71.8 157.8,71.8 157.8,73.4 157,73.3 150.9,85.9 150.9,88.3 156.8,103.9 
		157.8,104 157.8,105.4 151.8,105.4 151.9,104 152.6,104 148.8,92.8 147.9,92.7 146.9,95.5 146.8,103.9 147.4,103.9 147.4,105.4 	
		"/>
</g>
<path class="st1" d="M0.3,0.4v134.3h126.8V0.4H0.3z M122,129.7H5.4V5.8H122V129.7z"/>
<path class="st2" d="M60,104.2c-1.2-0.3-3.3-1-5.2-2.8c-3.3-3-3.7-6.9-3.8-7.9c0.1-18.4,0.2-36.7,0.3-55.1c0-0.1,0-0.2,0-0.3
	c0-3,3.5-6.1,6.9-6.4c0.3,0,0.6,0,0.8,0c0.7,0,1.4,0,2.1,0c0-1.5,0-3,0-4.5c-12.6,0-25.2,0-37.8,0c0,1.3,0,2.5,0,3.8
	c0.5,0,4.2-0.1,6.8,2.7c1.8,2,2.1,4.3,2.2,5c0,18.3,0,36.6,0,54.8c0,0.7,0,4.5-3,7.5c-2.3,2.3-5,2.8-5.9,2.9c0,1.2,0,2.5,0,3.7
	c12.3,0,24.5,0.1,36.8,0.1C60.1,106.6,60,105.4,60,104.2z M54.9,106.4c-9.5,0-19.1,0-28.6,0c0-0.5,0-0.9,0-1.4
	c1.1-0.5,2.8-1.3,4.4-3.1c3-3.2,3.2-7.1,3.2-8.2c0-18.2,0-36.4,0-54.6c0-0.6-0.2-4.5-3.4-7c-1.6-1.3-3.3-1.6-4.2-1.8
	c0-0.4,0-0.9,0-1.3h29.9v1.3c-0.3,0-0.6,0-0.9,0c-0.8,0-3.4,0.3-5.7,2.3c-2.3,2-2.9,4.5-3,5.2c-0.7,28.8-0.3,50.1,0.5,56.4
	c0.7,5,2.5,7.3,3.8,8.4c1.5,1.3,3,1.9,4.1,2.2C54.9,105.3,54.9,105.8,54.9,106.4z"/>
<path class="st2" d="M48.2,102.8c-3.2-2.1-3.7-6.6-3.7-8.4c0-19.3-0.1-38.5-0.1-57.8c0-0.6,0.2-1.9,1.2-3.3c0.8-1.1,1.8-1.6,2.3-1.9
	c0-0.2,0-0.5,0-0.7H32.5c0,0.3,0,0.5,0,0.8c0.5,0.4,1.3,1,1.9,1.9c0.5,0.8,0.8,1.5,0.9,2c0.2,0.7,0.5,1.8,0.5,3.2
	c0.2,29.8,0.1,51.6,0,55.8c0,1.2-0.2,3.7-1.8,6c-1,1.4-2.1,2.2-2.8,2.7c0,0.3,0,0.6,0,0.9H49v-0.9C48.7,103.1,48.5,103,48.2,102.8z
	 M34.4,103.5c0-0.4,0-0.8,0-1.2c0.3-0.2,0.7-0.4,1.1-0.9c0.2-0.2,0.7-0.8,1.1-3.1c0.1-0.6,0.2-1.3,0.3-2.3
	c0.1-33.5,0.2-57.2,0.2-58.5c0-0.1,0-0.4,0-0.8c0-0.3-0.2-1.4-0.9-2.6c-0.2-0.4-0.6-0.9-1.2-1.4c0-0.4,0-0.7,0-1.1
	c3.4,0,6.7,0,10.1,0.1c0,0.3,0,0.7,0,1c-0.7,0.5-1.1,1.1-1.2,1.5c-0.4,0.8-0.5,1.6-0.6,2.3c-0.1,0.7,0,1.2,0,1.2
	c0.1,1.3,0.2,24,0.3,58.4c0,0.9,0.1,1.7,0.2,2.2c0.2,1.3,0.4,2.2,1.1,3.2c0.4,0.5,0.8,0.8,1,1c0,0.3,0,0.7,0,1
	C42,103.5,38.2,103.5,34.4,103.5z"/>
<rect x="38.1" y="34.3" class="st3" width="4.1" height="1.2"/>
<rect x="38.9" y="37.5" class="st4" width="2.4" height="1.2"/>
<rect x="38.9" y="40.6" class="st4" width="2.4" height="1.2"/>
<rect x="38.9" y="46.3" class="st4" width="2.4" height="1.2"/>
<rect x="38.9" y="49.6" class="st4" width="2.4" height="1.2"/>
<rect x="38.9" y="52.6" class="st4" width="2.4" height="1.2"/>
<rect x="38.9" y="55.5" class="st4" width="2.4" height="1.2"/>
<rect x="38.9" y="58.3" class="st4" width="2.4" height="1.2"/>
<rect x="38.9" y="64.5" class="st4" width="2.4" height="1.2"/>
<rect x="38.9" y="67.6" class="st4" width="2.4" height="1.2"/>
<rect x="38.9" y="70.7" class="st4" width="2.4" height="1.2"/>
<rect x="38.9" y="73.8" class="st4" width="2.4" height="1.2"/>
<rect x="38.9" y="76.8" class="st4" width="2.4" height="1.2"/>
<rect x="38.9" y="79.9" class="st4" width="2.4" height="1.2"/>
<rect x="38.9" y="82.9" class="st4" width="2.4" height="1.2"/>
<rect x="38.9" y="89.2" class="st4" width="2.4" height="1.2"/>
<rect x="38.9" y="92.1" class="st4" width="2.4" height="1.2"/>
<rect x="38.1" y="97.9" class="st4" width="4.2" height="1.2"/>
<rect x="37.1" y="100.9" class="st4" width="5.9" height="1.2"/>
<path class="st5" d="M103.7,103.4c-0.6,0-1.4,0-2.4-0.1c-1-0.1-3.2-0.4-5.4-1.6c-1.8-1-3-2.3-3.7-3.1c-1.2-1.3-2.3-3-2.6-3.4
	c-0.2-0.2-0.2-0.4-0.3-0.4c0,0-19.2-30.4-20.5-34c-0.3-0.8-0.1-1.5-0.1-1.5l0,0c0.1-0.5,0.3-0.9,0.5-1.2c1.8-1.6,4.2-3.8,6.9-6.2
	c2.7-2.4,4.7-4.1,5.2-4.5c0,0,5.1-4.7,18.1-15c0.1-0.1,0.5-0.4,1.1-0.6c0.5-0.2,1-0.2,1.2-0.1l2.1,0c0-1.5,0.1-2.9,0.1-4.4
	c-9.3,0-18.7,0-28,0.1c0,1.4,0,2.7,0,4.1c1.3,0,2.7,0,4.1,0c0.3,0.1,0.9,0.3,1.5,0.8c1.5,1.3,1.8,3.7,1.2,5.4
	c-0.3,0.8-0.8,1.4-1.2,1.8C71.8,47.7,62,56.1,52.3,64.5c6,10.5,12,21,17.9,31.5c1.9,3.4,5.3,9.6,11.9,11.4c1.2,0.3,2.2,0.4,4.2,0.5
	c4.2,0.1,10.2,0.2,17.6-0.1C103.9,106.3,103.8,104.8,103.7,103.4z M99.3,106c-1.4,0-2.9,0-4.3,0c-3.3-0.1-6.5-0.2-9.8-0.3
	c-1.7,0-4.4-0.4-6.8-2c-2-1.3-3.4-3.3-4.2-4.3c-0.5-0.7-0.9-1.3-1.1-1.7C71.2,94.4,55,66.5,54.6,65.6c-0.2-0.4-0.1-0.8-0.1-0.8
	c0.1-0.4,0.3-0.6,0.4-0.7c0.2-0.2,21.5-17.6,27.5-23.6c0.5-0.5,1.8-1.8,2.1-3.8c0.1-0.5,0.6-3.3-1.4-5.2c-1.4-1.3-3.1-1.4-3.4-1.4
	c-0.6,0-1.1,0-1.5,0.1c0-0.7,0.1-1.4,0.1-2c7.7,0,15.4,0.1,23.1,0.1c0,0.6,0,1.3-0.1,1.9c-0.7,0-1.2,0-1.7,0c-0.7,0-1,0.1-1.2,0.2
	c-0.4,0.2-0.7,0.5-0.9,0.6c-11,9.2-21.9,18.4-32.9,27.6c-0.1,0.1-0.2,0.3-0.2,0.6c0,0,0,0.3,0.2,0.6c0.3,0.5,9.5,15.2,22.1,35.4
	c0.9,1.5,1.8,2.6,2.4,3.4c1.6,1.9,4.3,5,8.6,5.9c0.8,0.2,1.4,0.2,1.8,0.2C99.3,105.2,99.3,105.6,99.3,106z"/>
<path class="st6" d="M85.7,30.2c0,0.2,0,0.5,0,0.7c0.2,0,0.4,0,0.6,0c0.1,0,0.2,0,0.3,0.1c0.8,0.4,0.7,1.8,0.7,2.4
	c0,0.5,0,1.2-0.5,2c-0.2,0.2-0.3,0.4-0.4,0.6c0,0.2,0,0.4,0,0.6c0.4,0,0.9,0,1.3,0c0-0.2,0.1-0.6,0.3-0.6c0.9-0.5,2-1.2,3.2-2.5
	c0.8-0.9,1.4-1.8,1.8-2.5c0.3,0,0.7,0,1,0c0-0.3,0-0.5,0-0.8C91.3,30.2,88.5,30.2,85.7,30.2z M89.6,33.7c-0.5,0.4-1,0.7-1.4,0.9
	c0.2-0.3,0.5-1.1,0.4-2.1c-0.1-0.7-0.3-1.2-0.5-1.5c1.3,0,2.6,0,3.8,0.1C91.4,31.8,90.7,32.8,89.6,33.7z"/>
<path class="st2" d="M63.2,60.9c-0.3-0.4-0.6-0.5-0.6-0.5c-0.3-0.1-0.5,0.1-0.6,0.1c-2.5,1.9-4.3,3.4-4.7,3.9
	c-0.2,0.2-0.3,0.4-0.4,0.7c0,0.3,0,0.5,0.1,0.7c9.6,17.1,17,29.6,19.2,32.9c0.6,0.9,1.7,2.3,3.5,3.5c1.9,1.2,3.8,1.5,4.9,1.7
	c2.4,0.2,4.8,0.3,7.2,0.5c0-0.1,0-0.3,0.1-0.4c-1.7-1.1-3.6-2.6-5.2-4.6c-0.2-0.3-0.5-0.6-0.7-0.9C84.1,95.2,63.7,61.7,63.2,60.9z
	 M88.4,103.4c-2.1-0.1-5.1-0.5-7.8-2.4c-1.5-1.1-2.4-2.2-2.8-2.9c-6.1-10.5-12.3-21.1-18.5-31.6c0-0.1-0.2-0.3-0.2-0.7
	c0-0.4,0.3-0.6,0.3-0.6c0.9-0.7,1.7-1.4,2.6-2.1c0.1,0,0.2-0.1,0.3-0.1c0.1,0,0.2,0,0.4,0c0.3,0.1,0.3,0.4,0.4,0.4
	c7.4,12.1,14.7,24.2,22.1,36.3c0.3,0.5,0.8,1.5,2,2.2c0.5,0.3,0.9,0.4,1.3,0.5C88.5,102.8,88.5,103.1,88.4,103.4z"/>
<g>
	
		<rect x="61.6" y="66.9" transform="matrix(0.9995 -3.090069e-02 3.090069e-02 0.9995 -2.0591 1.9768)" class="st7" width="2.6" height="1.5"/>
	
		<rect x="63.7" y="70.5" transform="matrix(0.9995 -3.090069e-02 3.090069e-02 0.9995 -2.1699 2.0418)" class="st7" width="2.6" height="1.5"/>
	
		<rect x="65.5" y="73.8" transform="matrix(0.9995 -3.090069e-02 3.090069e-02 0.9995 -2.2707 2.0993)" class="st7" width="2.6" height="1.5"/>
	
		<rect x="67.4" y="77.1" transform="matrix(0.9995 -3.090069e-02 3.090069e-02 0.9995 -2.3715 2.1609)" class="st7" width="2.6" height="1.5"/>
	
		<rect x="69.6" y="80.8" transform="matrix(0.9995 -3.090069e-02 3.090069e-02 0.9995 -2.4845 2.23)" class="st7" width="2.6" height="1.5"/>
	
		<rect x="71.7" y="84.3" transform="matrix(0.9995 -3.090069e-02 3.090069e-02 0.9995 -2.5916 2.2978)" class="st7" width="2.6" height="1.5"/>
	
		<rect x="73.6" y="87.8" transform="matrix(0.9995 -3.090069e-02 3.090069e-02 0.9995 -2.6991 2.3588)" class="st7" width="2.6" height="1.5"/>
	
		<rect x="75.6" y="90.9" transform="matrix(0.9995 -3.090069e-02 3.090069e-02 0.9995 -2.7949 2.4196)" class="st7" width="2.6" height="1.5"/>
	
		<rect x="77.6" y="94.6" transform="matrix(0.9995 -3.090069e-02 3.090069e-02 0.9995 -2.907 2.4853)" class="st7" width="2.6" height="1.5"/>
	
		<rect x="80.4" y="98.1" transform="matrix(0.9995 -3.090069e-02 3.090069e-02 0.9995 -3.0145 2.572)" class="st7" width="2.6" height="1.5"/>
</g>
<rect x="38.9" y="43.5" class="st4" width="2.4" height="1.2"/>
<rect x="38.9" y="94.9" class="st4" width="2.4" height="1.2"/>
<path class="st2" d="M20.9,63.7"/>
<rect x="38.9" y="61.3" class="st4" width="2.4" height="1.2"/>
<rect x="38.9" y="86.1" class="st4" width="2.4" height="1.2"/>
</svg>
